<svg id="Logo" xmlns="http://www.w3.org/2000/svg" xmlns:xlink="http://www.w3.org/1999/xlink" width="146.396" height="80.108" viewBox="0 0 146.396 80.108">
  <defs>
    <linearGradient id="linear-gradient" y1="0.5" x2="1" y2="0.5" gradientUnits="objectBoundingBox">
      <stop offset="0" stop-color="#fffdf1" stop-opacity="0.055"/>
      <stop offset="0.07" stop-color="#fff" stop-opacity="0"/>
      <stop offset="0.587" stop-color="#ffe900" stop-opacity="0.502"/>
      <stop offset="0.831" stop-color="#ffe800" stop-opacity="0.69"/>
    </linearGradient>
  </defs>
  <ellipse id="Ellipse_1" data-name="Ellipse 1" cx="40.484" cy="40.054" rx="40.484" ry="40.054" transform="translate(35.941)" fill="url(#linear-gradient)"/>
  <g id="Group_8" data-name="Group 8" transform="translate(40.33 0.706)">
    <g id="Group_2" data-name="Group 2" transform="translate(28.092 3.598)">
      <path id="Path_2" data-name="Path 2" d="M489.263,128.518c-8.431,5.171-14.418,13.426-18.219,22.44a92.6,92.6,0,0,0-4.867,15.872c-1.257,5.635-2.3,11.336-3.028,17.064a91.571,91.571,0,0,0-.561,19.873c.037.4.662.4.625,0-1.06-11.566.718-23.193,3.076-34.5,2.136-10.236,5.233-20.485,11.432-29.048a41.663,41.663,0,0,1,11.857-11.165c.343-.21.029-.752-.316-.54Z" transform="translate(-462.277 -128.47)" fill="#fff"/>
    </g>
    <g id="Group_3" data-name="Group 3" transform="translate(1.048 23.787)">
      <path id="Path_3" data-name="Path 3" d="M408.722,204.514A123.02,123.02,0,0,1,433.3,183.147a86.173,86.173,0,0,1,28.635-12.253,65.79,65.79,0,0,1,9.021-1.327,23.942,23.942,0,0,1,10.156,1.126c.378.141.541-.464.166-.6-5.462-2.034-11.6-1.267-17.2-.255a77.169,77.169,0,0,0-15.085,4.393A101.747,101.747,0,0,0,421.691,191a132.191,132.191,0,0,0-13.41,13.073c-.268.3.173.743.442.442Z" transform="translate(-408.198 -168.812)" fill="#fff"/>
    </g>
    <g id="Group_4" data-name="Group 4" transform="translate(0 20.937)">
      <path id="Path_4" data-name="Path 4" d="M406.4,163.744a58.052,58.052,0,0,1,18.171,4.433,84.363,84.363,0,0,1,14.357,7.462,76.861,76.861,0,0,1,21.993,21.353A64.087,64.087,0,0,1,468.3,211.64c.132.378.736.215.6-.166A68.479,68.479,0,0,0,452.99,186.3a82.645,82.645,0,0,0-26.421-17.969,60.534,60.534,0,0,0-20.165-5.217c-.4-.024-.4.6,0,.626Z" transform="translate(-406.103 -163.118)" fill="#fff"/>
    </g>
    <g id="Group_5" data-name="Group 5" transform="translate(13.852 25.43)">
      <path id="Path_5" data-name="Path 5" d="M480.314,172.4c.362,8.9-3.594,17.323-9.2,24.034-6.048,7.243-14.042,12.572-22.321,16.942-4.831,2.55-9.815,4.8-14.829,6.958-.369.159-.05.7.316.54,9.061-3.907,18.111-8.1,26.16-13.874,7.389-5.3,13.959-12.088,17.666-20.5a31.846,31.846,0,0,0,2.831-14.1c-.017-.4-.642-.4-.625,0Z" transform="translate(-433.802 -172.096)" fill="#fff"/>
    </g>
    <g id="Group_6" data-name="Group 6" transform="translate(6.93)">
      <path id="Path_6" data-name="Path 6" d="M456.4,121.315c-8.15,3.937-16.1,8.573-22.937,14.551-4.966,4.341-9.487,9.556-11.889,15.781a23.528,23.528,0,0,0-.323,16.242c2.117,6.124,6.365,11.318,11.086,15.645a95.831,95.831,0,0,0,21.91,14.5q1.687.848,3.4,1.652c.362.171.679-.368.316-.54A106.146,106.146,0,0,1,435.04,185.07c-5.045-4.218-9.709-9.25-12.394-15.329a23.068,23.068,0,0,1-1.131-15.993c1.828-6.138,5.922-11.374,10.505-15.724,6.249-5.932,13.682-10.558,21.314-14.485q1.68-.864,3.382-1.684c.362-.175.045-.715-.316-.54Z" transform="translate(-419.96 -121.28)" fill="#fff"/>
    </g>
    <ellipse id="Ellipse_2" data-name="Ellipse 2" cx="1.57" cy="1.614" rx="1.57" ry="1.614" transform="translate(10.752 21.889)" fill="#fff"/>
    <ellipse id="Ellipse_3" data-name="Ellipse 3" cx="1.57" cy="1.614" rx="1.57" ry="1.614" transform="translate(58.747 23.231)" fill="#fff"/>
    <ellipse id="Ellipse_4" data-name="Ellipse 4" cx="1.57" cy="1.614" rx="1.57" ry="1.614" transform="translate(49.863 47.888)" fill="#fff"/>
    <ellipse id="Ellipse_5" data-name="Ellipse 5" cx="1.57" cy="1.614" rx="1.57" ry="1.614" transform="translate(32.473 32.131)" fill="#fff"/>
    <ellipse id="Ellipse_6" data-name="Ellipse 6" cx="1.57" cy="1.614" rx="1.57" ry="1.614" transform="translate(26.354 66.557)" fill="#fff"/>
    <ellipse id="Ellipse_7" data-name="Ellipse 7" cx="1.57" cy="1.614" rx="1.57" ry="1.614" transform="translate(8.09 48.56)" fill="#fff"/>
    <g id="Group_7" data-name="Group 7" transform="translate(15.206 5.02)">
      <path id="Path_7" data-name="Path 7" d="M436.6,131.851c5.142,5.509,11.176,10.467,18.381,12.96a28.214,28.214,0,0,0,11.451,1.572,31.484,31.484,0,0,0,10.733-3.127c3.146-1.485,6.219-3.674,7.307-7.139.121-.385-.483-.549-.6-.166-.959,3.057-3.609,5.05-6.357,6.442a31.075,31.075,0,0,1-10.424,3.3c-7.453.816-14.8-1.9-20.845-6.12a58.415,58.415,0,0,1-9.2-8.167c-.276-.295-.717.148-.442.442Z" transform="translate(-436.511 -131.312)" fill="#fff"/>
    </g>
    <ellipse id="Ellipse_8" data-name="Ellipse 8" cx="1.57" cy="1.614" rx="1.57" ry="1.614" transform="translate(38.677 18.246)" fill="#fff"/>
    <ellipse id="Ellipse_9" data-name="Ellipse 9" cx="1.57" cy="1.614" rx="1.57" ry="1.614" transform="translate(21.569 10.417)" fill="#fff"/>
  </g>
  <g id="Group_9" data-name="Group 9" transform="translate(0 25.325)">
    <path id="Path_8" data-name="Path 8" d="M334.52,170.474a.9.9,0,0,1,.655.281.9.9,0,0,1,0,1.309.9.9,0,0,1-.655.281h-.056a4.831,4.831,0,0,0-3.458,1.235,5.279,5.279,0,0,0-1.308,3.966v.542h3.065a.9.9,0,0,1,.654.281.929.929,0,0,1,.262.655.952.952,0,0,1-.262.674.928.928,0,0,1-.654.262H329.7V197.8a.9.9,0,0,1-.281.655.857.857,0,0,1-.654.28.958.958,0,0,1-.935-.935V179.958H326.39a.885.885,0,0,1-.654-.262.919.919,0,0,1-.281-.674.9.9,0,0,1,.281-.655.856.856,0,0,1,.654-.281h1.439v-.542a6.994,6.994,0,0,1,1.888-5.312,6.613,6.613,0,0,1,4.748-1.759Z" transform="translate(-325.455 -170.474)" fill="#fff"/>
    <path id="Path_9" data-name="Path 9" d="M351.928,170.876a1.128,1.128,0,1,1-.795-.327A1.085,1.085,0,0,1,351.928,170.876Zm-.795,7.248a.857.857,0,0,1,.654.281.9.9,0,0,1,.281.655v18.781a.9.9,0,0,1-.281.655.9.9,0,0,1-1.308,0,.9.9,0,0,1-.281-.655V179.06a.9.9,0,0,1,.281-.655A.857.857,0,0,1,351.134,178.125Z" transform="translate(-337.732 -170.511)" fill="#fff"/>
    <path id="Path_10" data-name="Path 10" d="M372.852,178.087a9.665,9.665,0,0,1,7.159,3.031,10.486,10.486,0,0,1,0,14.59,9.663,9.663,0,0,1-7.159,3.031,9.543,9.543,0,0,1-8.262-4.358V197.8a.9.9,0,0,1-.28.655.9.9,0,0,1-1.309,0,.9.9,0,0,1-.28-.655V171.409a.934.934,0,0,1,1.869,0v11.055A9.533,9.533,0,0,1,372.852,178.087Zm0,18.781a7.862,7.862,0,0,0,5.832-2.488,8.542,8.542,0,0,0,0-11.935,8.1,8.1,0,0,0-11.683,0,8.589,8.589,0,0,0,0,11.935A7.883,7.883,0,0,0,372.852,196.868Z" transform="translate(-344.085 -170.474)" fill="#fff"/>
    <path id="Path_11" data-name="Path 11" d="M412.9,205.534a10.475,10.475,0,0,1-3.29-2.207,10.224,10.224,0,0,1-2.224-11.3,10.254,10.254,0,0,1,2.224-3.31,10.46,10.46,0,0,1,3.29-2.207,10.358,10.358,0,0,1,8.094,0,10.454,10.454,0,0,1,3.29,2.207,10.271,10.271,0,0,1,2.224,3.31,10.147,10.147,0,0,1,.823,4.022.959.959,0,0,1-.935.935H408.491a8.114,8.114,0,0,0,2.766,5.312,8.259,8.259,0,0,0,5.682,2.17q5.122,0,7.664-3.536a.96.96,0,0,1,.6-.374.637.637,0,0,1,.15-.019.926.926,0,0,1,.542.187.879.879,0,0,1,.374.618.992.992,0,0,1,.018.187.876.876,0,0,1-.168.5,9.852,9.852,0,0,1-3.851,3.2,12.325,12.325,0,0,1-5.327,1.1A10.457,10.457,0,0,1,412.9,205.534Zm12.5-10.419a8.113,8.113,0,0,0-2.766-5.369,8.5,8.5,0,0,0-11.384,0,8.11,8.11,0,0,0-2.766,5.369Z" transform="translate(-366.004 -178.074)" fill="#fff"/>
    <path id="Path_12" data-name="Path 12" d="M463.1,185.687a.958.958,0,0,1,.935.935.918.918,0,0,1-.28.674.929.929,0,0,1-.655.262,6.87,6.87,0,0,0-5.327,2.488,8.643,8.643,0,0,0-2.206,5.967v9.39a.9.9,0,0,1-.28.655.9.9,0,0,1-1.308,0,.9.9,0,0,1-.281-.655V186.622a.9.9,0,0,1,.281-.655.9.9,0,0,1,1.308,0,.9.9,0,0,1,.28.655v3.236A8.692,8.692,0,0,1,463.1,185.687Z" transform="translate(-389.568 -178.074)" fill="#fff"/>
    <path id="Path_13" data-name="Path 13" d="M488.557,184.678a8.949,8.949,0,0,1,6.842,3.105,10.626,10.626,0,0,1,2.841,7.464v8.848a1.758,1.758,0,0,1-2.99,1.235,1.72,1.72,0,0,1-.5-1.235v-8.848a7.336,7.336,0,0,0-1.813-4.994,5.7,5.7,0,0,0-8.766,0,7.333,7.333,0,0,0-1.813,4.994v8.792a1.68,1.68,0,0,1-.505,1.235,1.717,1.717,0,0,1-1.234.5,1.739,1.739,0,0,1-1.252-.5,1.68,1.68,0,0,1-.505-1.235v-17.6a1.679,1.679,0,0,1,.505-1.234,1.707,1.707,0,0,1,1.252-.524,1.757,1.757,0,0,1,1.739,1.758v.693A8.945,8.945,0,0,1,488.557,184.678Z" transform="translate(-402.144 -177.57)" fill="#161615"/>
    <path id="Path_14" data-name="Path 14" d="M532.852,184.79a9.9,9.9,0,0,1,7.327,3.105,10.642,10.642,0,0,1,0,14.909,10.241,10.241,0,0,1-14.655,0,10.643,10.643,0,0,1,0-14.909A9.859,9.859,0,0,1,532.852,184.79Zm0,17.6a6.562,6.562,0,0,0,4.86-2.057,7.164,7.164,0,0,0,0-9.97,6.768,6.768,0,0,0-9.72,0,7.166,7.166,0,0,0,0,9.97A6.563,6.563,0,0,0,532.852,202.392Z" transform="translate(-423.952 -177.626)" fill="#161615"/>
    <path id="Path_15" data-name="Path 15" d="M591.819,185.744a1.658,1.658,0,0,1,.112,1.347l-5.664,17.6a1.754,1.754,0,0,1-3.327,0l-4.019-12.44-4,12.44a1.754,1.754,0,0,1-3.327,0l-5.664-17.6a1.658,1.658,0,0,1,.112-1.347,1.652,1.652,0,0,1,1.01-.86A1.65,1.65,0,0,1,568.4,185a1.654,1.654,0,0,1,.86,1.01l4,12.439,4-12.439a1.6,1.6,0,0,1,1.664-1.216,1.585,1.585,0,0,1,1.663,1.216l4.019,12.439,4-12.439a1.655,1.655,0,0,1,.86-1.01,1.65,1.65,0,0,1,1.346-.112A1.655,1.655,0,0,1,591.819,185.744Z" transform="translate(-445.628 -177.626)" fill="#161615"/>
  </g>
</svg>
